<svg width="25" height="25" viewBox="0 0 25 25" fill="none" xmlns="http://www.w3.org/2000/svg">
<path d="M18.3125 2H7.6875C5.09867 2 3 4.09867 3 6.6875V17.3125C3 19.9013 5.09867 22 7.6875 22H18.3125C20.9013 22 23 19.9013 23 17.3125V6.6875C23 4.09867 20.9013 2 18.3125 2Z" fill="url(#paint0_radial_323_4371)"/>
<path d="M18.3125 2H7.6875C5.09867 2 3 4.09867 3 6.6875V17.3125C3 19.9013 5.09867 22 7.6875 22H18.3125C20.9013 22 23 19.9013 23 17.3125V6.6875C23 4.09867 20.9013 2 18.3125 2Z" fill="url(#paint1_radial_323_4371)"/>
<path d="M13.0007 4.1875C10.879 4.1875 10.6127 4.1968 9.77938 4.23469C8.94766 4.27281 8.37992 4.40445 7.8832 4.59766C7.3693 4.79719 6.93344 5.06414 6.49922 5.49852C6.06461 5.93281 5.79766 6.36867 5.5975 6.88234C5.40375 7.37922 5.27195 7.94719 5.23453 8.77852C5.19727 9.61187 5.1875 9.87828 5.1875 12.0001C5.1875 14.1219 5.19688 14.3873 5.23469 15.2206C5.27297 16.0523 5.40461 16.6201 5.59766 17.1168C5.79734 17.6307 6.0643 18.0666 6.49867 18.5008C6.93281 18.9354 7.36867 19.203 7.88219 19.4025C8.3793 19.5957 8.94711 19.7273 9.77867 19.7655C10.612 19.8034 10.8781 19.8127 12.9998 19.8127C15.1217 19.8127 15.3872 19.8034 16.2205 19.7655C17.0522 19.7273 17.6205 19.5957 18.1177 19.4025C18.6313 19.203 19.0666 18.9354 19.5006 18.5008C19.9352 18.0666 20.2021 17.6307 20.4023 17.117C20.5944 16.6201 20.7262 16.0522 20.7653 15.2208C20.8027 14.3875 20.8125 14.1219 20.8125 12.0001C20.8125 9.87828 20.8027 9.61203 20.7653 8.77867C20.7262 7.94695 20.5944 7.3793 20.4023 6.88258C20.2021 6.36867 19.9352 5.93281 19.5006 5.49852C19.0661 5.06398 18.6315 4.79703 18.1172 4.59773C17.6191 4.40445 17.0511 4.27273 16.2194 4.23469C15.386 4.1968 15.1207 4.1875 12.9983 4.1875H13.0007ZM12.2998 5.59539C12.5079 5.59508 12.74 5.59539 13.0007 5.59539C15.0867 5.59539 15.3339 5.60289 16.1577 5.64031C16.9194 5.67516 17.3328 5.80242 17.6082 5.90938C17.9728 6.05094 18.2327 6.22023 18.506 6.49375C18.7795 6.76719 18.9487 7.02758 19.0906 7.39219C19.1976 7.66719 19.325 8.08063 19.3597 8.84234C19.3971 9.66594 19.4052 9.91328 19.4052 11.9983C19.4052 14.0833 19.3971 14.3307 19.3597 15.1542C19.3248 15.9159 19.1976 16.3294 19.0906 16.6045C18.9491 16.9691 18.7795 17.2287 18.506 17.502C18.2326 17.7754 17.973 17.9446 17.6082 18.0863C17.3331 18.1937 16.9194 18.3206 16.1577 18.3555C15.3341 18.3929 15.0867 18.401 13.0007 18.401C10.9146 18.401 10.6673 18.3929 9.84383 18.3555C9.08211 18.3203 8.66867 18.193 8.39305 18.0861C8.02852 17.9445 7.76805 17.7752 7.49461 17.5018C7.22117 17.2284 7.05195 16.9686 6.91 16.6038C6.80305 16.3288 6.67563 15.9153 6.64094 15.1536C6.60352 14.33 6.59602 14.0827 6.59602 11.9963C6.59602 9.91008 6.60352 9.66398 6.64094 8.84039C6.67578 8.07867 6.80305 7.66523 6.91 7.38984C7.05164 7.02523 7.22117 6.76484 7.49469 6.49141C7.76813 6.21797 8.02852 6.04867 8.39312 5.9068C8.66852 5.79937 9.08211 5.67242 9.84383 5.63742C10.5645 5.60484 10.8438 5.59508 12.2998 5.59344V5.59539ZM17.171 6.89258C16.6534 6.89258 16.2335 7.31211 16.2335 7.82977C16.2335 8.34734 16.6534 8.76727 17.171 8.76727C17.6886 8.76727 18.1085 8.34734 18.1085 7.82977C18.1085 7.31219 17.6886 6.89227 17.171 6.89227V6.89258ZM13.0007 7.98797C10.7851 7.98797 8.98867 9.78438 8.98867 12.0001C8.98867 14.2158 10.7851 16.0113 13.0007 16.0113C15.2164 16.0113 17.0122 14.2158 17.0122 12.0001C17.0122 9.78445 15.2163 7.98797 13.0005 7.98797H13.0007ZM13.0007 9.39586C14.4389 9.39586 15.6049 10.5617 15.6049 12.0001C15.6049 13.4383 14.4389 14.6043 13.0007 14.6043C11.5624 14.6043 10.3966 13.4383 10.3966 12.0001C10.3966 10.5617 11.5624 9.39586 13.0007 9.39586Z" fill="white"/>
<defs>
<radialGradient id="paint0_radial_323_4371" cx="0" cy="0" r="1" gradientUnits="userSpaceOnUse" gradientTransform="translate(8.3125 23.5404) rotate(-90) scale(19.8215 18.4355)">
<stop stop-color="#FFDD55"/>
<stop offset="0.1" stop-color="#FFDD55"/>
<stop offset="0.5" stop-color="#FF543E"/>
<stop offset="1" stop-color="#C837AB"/>
</radialGradient>
<radialGradient id="paint1_radial_323_4371" cx="0" cy="0" r="1" gradientUnits="userSpaceOnUse" gradientTransform="translate(-0.350078 3.4407) rotate(78.681) scale(8.86031 36.5225)">
<stop stop-color="#3771C8"/>
<stop offset="0.128" stop-color="#3771C8"/>
<stop offset="1" stop-color="#6600FF" stop-opacity="0"/>
</radialGradient>
</defs>
</svg>
