<svg xmlns="http://www.w3.org/2000/svg" version="1.1" xmlns:xlink="http://www.w3.org/1999/xlink" width="512" height="512" x="0" y="0" viewBox="0 0 48 48" style="enable-background:new 0 0 512 512" xml:space="preserve" class=""><g><path d="m19.87 34-2.78 1.6a2.64 2.64 0 0 1-4-2.28L15 27.54a2.44 2.44 0 0 1 2.21-1.67l6.91-.26a1.64 1.64 0 0 0 0-3.26l-6.91-.27A2.44 2.44 0 0 1 15 20.41l-1.9-5.76a2.65 2.65 0 0 1 4-2.3L25.18 17l8.08 4.67a2.65 2.65 0 0 1 0 4.58l-8.08 4.65-1.33.77z" fill="#ffffff" opacity="1" data-original="#000000"></path></g></svg>