<svg width="25" height="25" viewBox="0 0 25 25" fill="none" xmlns="http://www.w3.org/2000/svg">
<path d="M17.5206 21.6333L3.90919 4.13333C3.83745 4.04095 3.79307 3.93028 3.78111 3.81393C3.76915 3.69757 3.79007 3.58019 3.84152 3.47514C3.89296 3.37009 3.97284 3.28158 4.07209 3.21968C4.17134 3.15778 4.28597 3.12498 4.40294 3.125H6.98628C7.08138 3.12514 7.17519 3.14698 7.26057 3.18886C7.34596 3.23074 7.42066 3.29155 7.47898 3.36667L21.0904 20.8667C21.1622 20.9591 21.2066 21.0697 21.2185 21.1861C21.2305 21.3024 21.2096 21.4198 21.1581 21.5249C21.1067 21.6299 21.0268 21.7184 20.9275 21.7803C20.8283 21.8422 20.7137 21.875 20.5967 21.875H18.0134C17.9183 21.8749 17.8244 21.853 17.7391 21.8111C17.6537 21.7693 17.579 21.7084 17.5206 21.6333Z" stroke="black" stroke-width="1.5625"/>
<path d="M20.8332 3.125L4.1665 21.875" stroke="black" stroke-width="1.5625" stroke-linecap="round"/>
</svg>
