<svg width="25" height="25" viewBox="0 0 25 25" fill="none" xmlns="http://www.w3.org/2000/svg">
<path d="M20.0409 20.0412H17.0776V15.4004C17.0776 14.2937 17.0578 12.8691 15.5363 12.8691C13.9929 12.8691 13.7567 14.0749 13.7567 15.3198V20.0409H10.7934V10.4975H13.6382V11.8017H13.678C13.9627 11.3149 14.3741 10.9144 14.8684 10.6429C15.3627 10.3715 15.9214 10.2391 16.4849 10.26C19.4884 10.26 20.0422 12.2357 20.0422 14.8058L20.0409 20.0412ZM7.44969 9.19302C6.49992 9.19317 5.72984 8.42333 5.72969 7.47356C5.72953 6.5238 6.4993 5.75372 7.44906 5.75356C8.39883 5.75333 9.16891 6.52317 9.16906 7.47294C9.16915 7.92903 8.98805 8.36648 8.6656 8.68906C8.34316 9.01163 7.90578 9.19291 7.44969 9.19302ZM8.93141 20.0413H5.96492V10.4975H8.93133L8.93141 20.0413ZM21.5183 3.00146H4.47586C3.67039 2.99239 3.00984 3.63763 3 4.4431V21.5566C3.00953 22.3625 3.67 23.0083 4.47578 22.9999H21.5183C22.3258 23.0099 22.9888 22.364 23 21.5566V4.44177C22.9885 3.63474 22.3254 2.98958 21.5183 3.00013" fill="#0A66C2"/>
</svg>
