<svg xmlns="http://www.w3.org/2000/svg" version="1.1" xmlns:xlink="http://www.w3.org/1999/xlink" width="512" height="512" x="0" y="0" viewBox="0 0 1000 1000" style="enable-background:new 0 0 512 512" xml:space="preserve" class=""><g><path fill="#ffffff" d="M512 774.49c-4.09 1.87-7.75 3.48-10.89 4.84a2.8 2.8 0 0 1-2.3 0c-3.14-1.36-6.8-3-10.89-4.84-91.22-41.22-405.83-241.4-316-454.07a179.31 179.31 0 0 1 327.49 13.21.56.56 0 0 0 1 0A179.31 179.31 0 0 1 828 320.42c89.87 212.67-224.74 412.85-316 454.07z" opacity="1" data-original="#f33f4d" class=""></path><circle cx="295" cy="336" r="38" fill="#ffffff" opacity="1" data-original="#ffffff" class=""></circle></g></svg>